<?xml version="1.0" encoding="utf-8"?>
<!-- Generator: Adobe Illustrator 16.0.0, SVG Export Plug-In . SVG Version: 6.00 Build 0)  -->
<!DOCTYPE svg PUBLIC "-//W3C//DTD SVG 1.1//EN" "http://www.w3.org/Graphics/SVG/1.1/DTD/svg11.dtd">
<svg version="1.1" id="Layer_12" xmlns="http://www.w3.org/2000/svg" xmlns:xlink="http://www.w3.org/1999/xlink" x="0px" y="0px"
	 width="100px" height="100px" viewBox="0 0 100 100" enable-background="new 0 0 100 100" xml:space="preserve">
<path d="M11.714,76.494c0.224,0.785,0.766,1.438,1.524,1.837c11.18,5.87,23.269,8.847,35.933,8.847h0.004
	c21.45-0.001,37.007-8.522,37.66-8.885c0.733-0.41,1.252-1.061,1.461-1.831c0.199-0.737,0.095-1.508-0.297-2.173L52.83,14.379
	c-0.561-0.959-1.646-1.557-2.83-1.557s-2.27,0.598-2.832,1.559L12.001,74.289C11.604,74.965,11.501,75.748,11.714,76.494z
	 M35.312,77.215l13.073-52.942c0.339-1.308,1.432-2.282,2.768-2.468c1.336-0.189,2.654,0.449,3.338,1.612l25.828,45.552
	c0.728,1.237,0.922,2.679,0.548,4.063c-0.382,1.406-1.306,2.577-2.603,3.3c-0.479,0.269-11.929,6.548-27.586,6.548h-0.002
	c-4.361,0-8.711-0.501-12.924-1.487c-0.891-0.209-1.655-0.772-2.117-1.564C35.173,79.038,35.055,78.093,35.312,77.215z"/>
</svg>
